<svg width="49" height="48" viewBox="0 0 49 48" fill="none" xmlns="http://www.w3.org/2000/svg">
<path d="M16.4879 45.5732H20.6708V47.5H0.597656V45.5732H5.95131H6.45131V45.0732V2.92683V2.42683H5.95131H0.597656V0.5H47.5977V2.42683H42.244H41.744V2.92683V45.0732V45.5732H42.244H47.0123V47.5H27.5245V45.5732H31.7074H32.2074V45.0732V2.92683V2.42683H31.7074H16.4879H15.9879V2.92683V45.0732V45.5732H16.4879Z" fill="#F50000" stroke="#F50000"/>
<path d="M4.78369 24.6138H3.11816V23.7393H4.78369C5.07373 23.7393 5.30811 23.6924 5.48682 23.5986C5.66553 23.5049 5.7959 23.376 5.87793 23.2119C5.96289 23.0449 6.00537 22.8545 6.00537 22.6406C6.00537 22.4385 5.96289 22.2495 5.87793 22.0737C5.7959 21.895 5.66553 21.7515 5.48682 21.6431C5.30811 21.5347 5.07373 21.4805 4.78369 21.4805H3.45654V27H2.35352V20.6016H4.78369C5.27881 20.6016 5.69922 20.6895 6.04492 20.8652C6.39355 21.0381 6.65869 21.2783 6.84033 21.5859C7.02197 21.8906 7.11279 22.2393 7.11279 22.6318C7.11279 23.0449 7.02197 23.3994 6.84033 23.6953C6.65869 23.9912 6.39355 24.2183 6.04492 24.3765C5.69922 24.5347 5.27881 24.6138 4.78369 24.6138ZM13.2036 23.625V23.9766C13.2036 24.46 13.1406 24.8936 13.0146 25.2773C12.8887 25.6611 12.7085 25.9878 12.4741 26.2573C12.2427 26.5269 11.9644 26.7334 11.6392 26.877C11.314 27.0176 10.9536 27.0879 10.5581 27.0879C10.1655 27.0879 9.80664 27.0176 9.48145 26.877C9.15918 26.7334 8.87939 26.5269 8.64209 26.2573C8.40479 25.9878 8.22021 25.6611 8.08838 25.2773C7.95947 24.8936 7.89502 24.46 7.89502 23.9766V23.625C7.89502 23.1416 7.95947 22.7095 8.08838 22.3286C8.21729 21.9448 8.39893 21.6182 8.6333 21.3486C8.87061 21.0762 9.15039 20.8696 9.47266 20.729C9.79785 20.5854 10.1567 20.5137 10.5493 20.5137C10.9448 20.5137 11.3052 20.5854 11.6304 20.729C11.9556 20.8696 12.2354 21.0762 12.4697 21.3486C12.7041 21.6182 12.8843 21.9448 13.0103 22.3286C13.1392 22.7095 13.2036 23.1416 13.2036 23.625ZM12.1006 23.9766V23.6162C12.1006 23.2588 12.0654 22.9438 11.9951 22.6714C11.9277 22.396 11.8267 22.166 11.6919 21.9814C11.5601 21.7939 11.3975 21.6533 11.2041 21.5596C11.0107 21.4629 10.7925 21.4146 10.5493 21.4146C10.3062 21.4146 10.0894 21.4629 9.89893 21.5596C9.7085 21.6533 9.5459 21.7939 9.41113 21.9814C9.2793 22.166 9.17822 22.396 9.10791 22.6714C9.0376 22.9438 9.00244 23.2588 9.00244 23.6162V23.9766C9.00244 24.334 9.0376 24.6504 9.10791 24.9258C9.17822 25.2012 9.28076 25.4341 9.41553 25.6245C9.55322 25.812 9.71729 25.9541 9.90771 26.0508C10.0981 26.1445 10.3149 26.1914 10.5581 26.1914C10.8042 26.1914 11.0225 26.1445 11.2129 26.0508C11.4033 25.9541 11.5645 25.812 11.6963 25.6245C11.8281 25.4341 11.9277 25.2012 11.9951 24.9258C12.0654 24.6504 12.1006 24.334 12.1006 23.9766ZM18.9692 20.6016V27H17.875V20.6016H18.9692ZM20.9775 20.6016V21.4805H15.8843V20.6016H20.9775ZM26.0093 26.1255V27H22.6123V26.1255H26.0093ZM22.9243 20.6016V27H21.8213V20.6016H22.9243ZM25.5654 23.2734V24.1348H22.6123V23.2734H25.5654ZM25.9873 20.6016V21.4805H22.6123V20.6016H25.9873ZM31.6895 24.917H32.7881C32.7529 25.3359 32.6357 25.7095 32.4365 26.0376C32.2373 26.3628 31.9575 26.6191 31.5972 26.8066C31.2368 26.9941 30.7988 27.0879 30.2832 27.0879C29.8877 27.0879 29.5317 27.0176 29.2153 26.877C28.8989 26.7334 28.6279 26.5312 28.4023 26.2705C28.1768 26.0068 28.0039 25.689 27.8838 25.3169C27.7666 24.9448 27.708 24.5288 27.708 24.0688V23.5371C27.708 23.0771 27.7681 22.6611 27.8882 22.2891C28.0112 21.917 28.187 21.5991 28.4155 21.3354C28.644 21.0688 28.918 20.8652 29.2373 20.7246C29.5596 20.584 29.9214 20.5137 30.3228 20.5137C30.8325 20.5137 31.2632 20.6074 31.6147 20.7949C31.9663 20.9824 32.2388 21.2417 32.4321 21.5728C32.6284 21.9038 32.7485 22.2832 32.7925 22.7109H31.6938C31.6646 22.4355 31.6001 22.1997 31.5005 22.0034C31.4038 21.8071 31.2603 21.6577 31.0698 21.5552C30.8794 21.4497 30.6304 21.397 30.3228 21.397C30.0708 21.397 29.8511 21.4438 29.6636 21.5376C29.4761 21.6313 29.3193 21.769 29.1934 21.9507C29.0674 22.1323 28.9722 22.3564 28.9077 22.623C28.8462 22.8867 28.8154 23.1885 28.8154 23.5283V24.0688C28.8154 24.3911 28.8433 24.6841 28.8989 24.9478C28.9575 25.2085 29.0454 25.4326 29.1626 25.6201C29.2827 25.8076 29.4351 25.9526 29.6196 26.0552C29.8042 26.1577 30.0254 26.209 30.2832 26.209C30.5967 26.209 30.8501 26.1592 31.0435 26.0596C31.2397 25.96 31.3877 25.8149 31.4873 25.6245C31.5898 25.4312 31.6572 25.1953 31.6895 24.917ZM36.2905 20.6016V27H35.1963V20.6016H36.2905ZM38.2988 20.6016V21.4805H33.2056V20.6016H38.2988ZM39.9248 23.0581H41.5376C42.0239 23.0581 42.4385 23.1401 42.7812 23.3042C43.127 23.4653 43.3906 23.6924 43.5723 23.9854C43.7568 24.2783 43.8491 24.6196 43.8491 25.0093C43.8491 25.3022 43.7964 25.5703 43.6909 25.8135C43.5884 26.0566 43.4375 26.2676 43.2383 26.4463C43.0391 26.6221 42.7959 26.7583 42.5088 26.855C42.2246 26.9517 41.9009 27 41.5376 27H39.1646V20.6016H40.2676V26.1255H41.5376C41.8159 26.1255 42.0444 26.0742 42.2231 25.9717C42.4019 25.8662 42.5337 25.7285 42.6187 25.5586C42.7065 25.3887 42.7505 25.2026 42.7505 25.0005C42.7505 24.8042 42.7065 24.6255 42.6187 24.4644C42.5337 24.3032 42.4019 24.1743 42.2231 24.0776C42.0444 23.981 41.8159 23.9326 41.5376 23.9326H39.9248V23.0581ZM45.6113 20.6016V27H44.5083V20.6016H45.6113Z" fill="black"/>
</svg>
